<?xml version="1.0" encoding="UTF-8" standalone="no"?>
<!-- Created with Inkscape (http://www.inkscape.org/) -->

<svg
   width="177.26901mm"
   height="177.26901mm"
   viewBox="0 0 177.26901 177.26901"
   version="1.1"
   id="svg1"
   xml:space="preserve"
   sodipodi:docname="logo.svg"
   inkscape:export-filename="logo-isf.png"
   inkscape:export-xdpi="96"
   inkscape:export-ydpi="96"
   inkscape:version="1.4 (e7c3feb100, 2024-10-09)"
   xmlns:inkscape="http://www.inkscape.org/namespaces/inkscape"
   xmlns:sodipodi="http://sodipodi.sourceforge.net/DTD/sodipodi-0.dtd"
   xmlns:xlink="http://www.w3.org/1999/xlink"
   xmlns="http://www.w3.org/2000/svg"
   xmlns:svg="http://www.w3.org/2000/svg"><sodipodi:namedview
     id="namedview1"
     pagecolor="#505050"
     bordercolor="#eeeeee"
     borderopacity="1"
     inkscape:showpageshadow="0"
     inkscape:pageopacity="0"
     inkscape:pagecheckerboard="0"
     inkscape:deskcolor="#505050"
     inkscape:document-units="mm"
     inkscape:zoom="0.80072358"
     inkscape:cx="224.79668"
     inkscape:cy="303.47551"
     inkscape:window-width="2554"
     inkscape:window-height="1407"
     inkscape:window-x="1080"
     inkscape:window-y="0"
     inkscape:window-maximized="1"
     inkscape:current-layer="g8"><inkscape:page
       x="0"
       y="0"
       width="177.26901"
       height="177.26901"
       id="page2"
       margin="0"
       bleed="0" /></sodipodi:namedview><defs
     id="defs1"><linearGradient
       id="linearGradient10"><stop
         style="stop-color:#00ffff;stop-opacity:1;"
         offset="0"
         id="stop11" /><stop
         style="stop-color:#00ffff;stop-opacity:0;"
         offset="1"
         id="stop12" /></linearGradient><style
       id="style1">.cls-1{fill:none;stroke:#000;stroke-linejoin:round;stroke-width:2px;}</style><radialGradient
       xlink:href="#linearGradient10"
       id="radialGradient12"
       cx="145.78351"
       cy="137.5377"
       fx="145.78351"
       fy="137.5377"
       r="36.01104"
       gradientUnits="userSpaceOnUse" /></defs><g
     id="layer1"
     transform="translate(-16.365496,-58.478921)"><g
       id="g15"
       transform="matrix(2.4613149,0,0,2.4613149,-253.81912,-191.41016)"><g
         id="g1"><path
           d="m 71.349238,193.41886 h -1.6463 v 1.6463 h -14.8167 v -3.2926 h 9.8778 v -3.2926 h -8.2315 v -1.6463 h -1.6463 v -6.5852 h 1.6463 v -1.6463 h 14.8167 v 3.2926 h -9.8778 v 3.2926 h 8.2315 v 1.6463 h 1.6463 z"
           id="text15"
           style="font-size:19.7556px;font-family:'8BIT WONDER';-inkscape-font-specification:'8BIT WONDER';fill:none;stroke-width:0.1"
           aria-label="s"
           transform="matrix(0.4062869,0,0,0.4062869,103.12338,77.76744)" /><path
           id="circle8"
           style="opacity:1;fill:url(#radialGradient12);stroke-width:0.331837"
           d="m 181.79455,137.5377 a 36.01104,36.01104 0 0 1 -36.01104,36.01104 36.01104,36.01104 0 0 1 -36.01104,-36.01104 36.01104,36.01104 0 0 1 36.01104,-36.01104 36.01104,36.01104 0 0 1 36.01104,36.01104 z" /><path
           id="path21"
           style="fill:#ffffff;stroke-width:0.24495"
           d="m 143.25754,136.94807 a 16.12546,16.12546 0 0 1 -16.12546,16.12546 16.12546,16.12546 0 0 1 -16.12546,-16.12546 16.12546,16.12546 0 0 1 16.12546,-16.12546 16.12546,16.12546 0 0 1 16.12546,16.12546 z" /><path
           id="circle22"
           style="fill:#ffffff;stroke-width:0.24495"
           d="m 170.24781,122.69128 a 16.12546,16.12546 0 0 1 -16.12546,16.12546 16.12546,16.12546 0 0 1 -16.12546,-16.12546 16.12546,16.12546 0 0 1 16.12546,-16.12546 16.12546,16.12546 0 0 1 16.12546,16.12546 z" /><path
           id="circle23"
           style="fill:#ffffff;stroke-width:0.24495"
           d="m 161.95844,138.87946 a 16.12546,16.12546 0 0 1 -16.12546,16.12546 16.12546,16.12546 0 0 1 -16.12546,-16.12546 16.12546,16.12546 0 0 1 16.12546,-16.12546 16.12546,16.12546 0 0 1 16.12546,16.12546 z" /><path
           id="circle21"
           style="fill:#ffffff;stroke-width:0.222125"
           d="m 164.73465,163.84512 a 18.027043,11.861545 58.1388 0 1 -19.34245,-4.80782 18.027043,11.861545 58.1388 0 1 -3.15539,-22.89409 18.027043,11.861545 58.1388 0 1 19.34246,4.80783 18.027043,11.861545 58.1388 0 1 3.15538,22.89408 z" /><path
           d="m 159.402,107.32377 c 0.002,0.17999 -0.0436,0.36528 -0.146,0.54126 l -15.57616,26.78455 -30.38096,0.33166 c -1.32235,0.0144 -2.27974,-1.01454 -2.29213,-2.1486 -0.004,-0.3649 0.0898,-0.74077 0.3007,-1.0962 l 12.3273,-20.79829 c 1.5914,-2.67976 4.55993,-4.35902 7.79079,-4.39429 l 26.83789,-0.29298 c 0.77378,-0.008 1.13239,0.50585 1.13857,1.07289 z m 5.54753,56.71791 c -0.3835,0.004 -0.76859,-0.17516 -0.98993,-0.53919 l -16.33279,-26.72377 15.75209,-27.07008 c 0.21322,-0.36754 0.71353,-0.55491 0.97143,-0.55776 0.38012,-0.004 0.76257,0.17089 0.98614,0.52755 l 13.9419,22.26289 c 0.83805,1.45513 1.26507,2.97103 1.28152,4.47786 0.0164,1.50684 -0.37737,3.02764 -1.18351,4.38732 l -13.45257,22.56195 c -0.21611,0.47483 -0.59414,0.66902 -0.97422,0.67318 z m -4.9073,1.92716 c 0.006,0.57016 -0.34109,1.08985 -1.11488,1.09829 l -26.83788,0.293 c -3.22408,0.0352 -6.22855,-1.5775 -7.87854,-4.22866 l -12.78248,-20.52414 c -0.22226,-0.33974 -0.32147,-0.71877 -0.32548,-1.08531 -0.0123,-1.12673 0.92655,-2.18238 2.24332,-2.19675 l 30.38098,-0.33167 16.15965,26.43391 c 0.11012,0.17554 0.15335,0.36486 0.15527,0.54136 z"
           id="path1"
           style="fill:#000000;stroke-width:0.135758" /><path
           d="m 167.28584,150.85865 -0.99625,-1.59636 -0.94851,1.56457 -8.89915,-14.27018 1.85018,-3.19273 5.95877,9.53787 1.90292,-3.18648 -4.99675,-7.98352 0.94396,-1.62077 -0.99948,-1.59579 3.81111,-6.57677 1.01124,1.60772 0.96764,-1.66108 9.17091,14.57106 -1.98439,3.25631 -6.08661,-9.68887 -1.92903,3.26311 5.04006,8.03802 -0.97206,1.60317 1.00788,1.60885 z"
           id="text3"
           style="font-size:19.7556px;font-family:'8BIT WONDER';-inkscape-font-specification:'8BIT WONDER';fill:#ffffff;stroke-width:0.0652851"
           aria-label="s" /><path
           d="m 147.70033,161.58748 -6.48879,-10.56964 -4.25912,0.0534 3.25154,5.28104 -4.23453,0.0384 -3.25142,-5.26533 -8.39546,0.10631 -4.35693,-7.01647 19.02688,-0.33399 1.09194,1.78131 2.14512,-0.0352 9.7548,15.93688 z"
           id="text4"
           style="font-size:19.7556px;font-family:'8BIT WONDER';-inkscape-font-specification:'8BIT WONDER';fill:#ffffff;stroke-width:0.0723345"
           aria-label="f" /><path
           d="m 137.86139,128.05891 -13.97412,0.0962 6.72978,-11.67375 14.11744,-0.13163 z"
           id="text5"
           style="font-size:19.7556px;font-family:'8BIT WONDER';-inkscape-font-specification:'8BIT WONDER';fill:#ffffff;stroke-width:0.0474576"
           aria-label="i" /><g
           id="g8"
           style="stroke:#ffffff;stroke-width:5.3632;stroke-dasharray:none"
           transform="matrix(0.19363996,0,0,0.16172173,128.30291,91.946134)"><path
             id="rect1"
             style="stroke:#ffffff;stroke-width:5.3632;stroke-linejoin:round;stroke-dasharray:none"
             class="cls-1"
             d="M 50.382077,112.78604 84.591786,112.46716 67.93663,140.84081 34.074504,141.0739 Z" /><path
             id="circle1"
             style="stroke:#ffffff;stroke-width:5.3632;stroke-linejoin:round;stroke-dasharray:none"
             class="cls-1"
             d="m 61.454611,126.83601 c -0.291835,0.50093 -0.810682,0.98311 -1.442242,1.3405 -0.631295,0.3573 -1.323973,0.56066 -1.925371,0.56545 -0.601397,0.005 -1.0623,-0.18942 -1.281904,-0.53983 -0.219604,-0.3505 -0.179388,-0.82865 0.111389,-1.32937 0.291042,-0.50091 0.80936,-0.98338 1.440919,-1.34125 0.63156,-0.35799 1.324767,-0.56195 1.926958,-0.56693 0.602191,-0.005 1.063888,0.1895 1.283492,0.54057 0.21934,0.351 0.178594,0.82976 -0.113241,1.33086 z" /></g></g></g></g></svg>
